<?xml version="1.0" standalone="no"?>
<!DOCTYPE svg PUBLIC "-//W3C//DTD SVG 20010904//EN"
 "http://www.w3.org/TR/2001/REC-SVG-20010904/DTD/svg10.dtd">
<svg version="1.0" xmlns="http://www.w3.org/2000/svg"
 width="136.000000pt" height="151.000000pt" viewBox="0 0 136.000000 151.000000"
 preserveAspectRatio="xMidYMid meet">

<g transform="translate(0.000000,151.000000) scale(0.100000,-0.100000)"
fill="#000000" stroke="none">
<path d="M580 1440 l0 -50 -50 0 -50 0 0 -35 0 -35 50 0 50 0 0 -55 c0 -54 0
-55 30 -55 30 0 30 1 30 55 l0 55 50 0 50 0 0 35 0 35 -50 0 -50 0 0 50 c0 49
-1 50 -30 50 -29 0 -30 -1 -30 -50z"/>
<path d="M478 1120 c-78 -23 -124 -90 -140 -202 -12 -90 3 -170 42 -225 l31
-42 -35 -45 c-52 -68 -70 -134 -69 -246 2 -162 44 -249 142 -297 50 -25 67
-28 156 -28 59 0 116 6 139 14 55 19 110 73 137 134 22 48 24 64 24 230 l0
177 46 0 c64 0 99 28 99 80 l0 39 -67 3 -68 3 -3 35 c-5 51 -17 60 -78 60
l-54 0 0 -50 0 -50 -35 0 -35 0 0 -60 0 -60 36 0 36 0 -4 -152 c-2 -129 -6
-159 -23 -193 -29 -58 -75 -85 -144 -85 -119 0 -166 58 -166 205 0 80 3 95 27
137 26 43 90 88 126 88 8 0 12 21 12 64 l0 63 -49 7 c-67 9 -84 31 -89 116 -8
140 23 170 176 170 100 0 106 3 116 66 l6 41 -92 7 c-113 8 -165 7 -200 -4z"/>
</g>
</svg>
